<svg xmlns="http://www.w3.org/2000/svg" viewBox="0 0 397 397"><defs><style>.cls-1{fill:#bfbfbf;}.cls-2{fill:#fff;}</style></defs><title>avatar</title><g id="Capa_2" data-name="Capa 2"><g id="Capa_1-2" data-name="Capa 1"><circle class="cls-1" cx="198.5" cy="198.5" r="198.5"/><path class="cls-2" d="M198.5,198.5a61.73,61.73,0,0,0,61.71-61.71,61.71,61.71,0,0,0-61.71-61.7,61.71,61.71,0,0,0-61.71,61.7A61.73,61.73,0,0,0,198.5,198.5Z"/><path class="cls-2" d="M311.07,263.66a165.91,165.91,0,0,0-2.25-17.51,137.86,137.86,0,0,0-4.26-17.44A82.51,82.51,0,0,0,297.64,213a56.36,56.36,0,0,0-10-13,41.87,41.87,0,0,0-13.74-8.6A48.3,48.3,0,0,0,256,188.22q-1.44,0-6.75,3.45t-12,7.72a76.13,76.13,0,0,1-17.35,7.7,68.25,68.25,0,0,1-42.91,0,76.13,76.13,0,0,1-17.35-7.7q-6.67-4.26-12-7.72T141,188.22a48.3,48.3,0,0,0-17.92,3.21,41.87,41.87,0,0,0-13.74,8.6,56.36,56.36,0,0,0-10,13,82.74,82.74,0,0,0-6.91,15.67,134.52,134.52,0,0,0-4.26,17.44,160.81,160.81,0,0,0-2.25,17.51q-.57,8.11-.56,16.64,0,19.27,11.73,30.45t31.17,11.16H268.72q19.45,0,31.18-11.16t11.73-30.45Q311.63,271.78,311.07,263.66Z"/></g></g></svg>