<svg xmlns="http://www.w3.org/2000/svg" viewBox="0 0 300 300"><title>broadband</title><g id="Capa_2" data-name="Capa 2"><g id="Layer_1" data-name="Layer 1"><path d="M275.81,208.07H48.39V77.42a14.52,14.52,0,1,0-29,0V208.55A24.25,24.25,0,0,0,0,232.26v29a24.21,24.21,0,0,0,14.52,22.14v6.89A9.69,9.69,0,0,0,24.19,300H43.55a9.68,9.68,0,0,0,9.67-9.68v-4.84H241.93v4.84a9.69,9.69,0,0,0,9.68,9.68H271a9.69,9.69,0,0,0,9.67-9.68V285A24.25,24.25,0,0,0,300,261.29v-29A24.22,24.22,0,0,0,275.81,208.07ZM33.87,72.58a4.84,4.84,0,0,1,4.84,4.84V208.07H29V77.42h0A4.84,4.84,0,0,1,33.87,72.58Zm9.68,217.74H24.19v-4.84H43.55Zm227.42,0H251.61v-4.84H271Zm19.35-29a14.54,14.54,0,0,1-14.51,14.52H24.19A14.54,14.54,0,0,1,9.68,261.29v-29a14.54,14.54,0,0,1,14.51-14.52H275.81a14.54,14.54,0,0,1,14.51,14.52Z"/><path d="M96.77,227.42H29a9.69,9.69,0,0,0-9.68,9.68v19.35A9.69,9.69,0,0,0,29,266.13H96.77a9.69,9.69,0,0,0,9.68-9.68V237.1A9.69,9.69,0,0,0,96.77,227.42ZM29,256.45V237.1H96.77v19.35Z"/><rect x="270.97" y="241.93" width="9.68" height="9.68"/><rect x="251.61" y="241.93" width="9.68" height="9.68"/><rect x="232.26" y="241.93" width="9.68" height="9.68"/><rect x="212.9" y="241.93" width="9.68" height="9.68"/><path d="M96.77,125.81a14.52,14.52,0,1,0-14.51-14.52A14.54,14.54,0,0,0,96.77,125.81Zm0-19.36a4.84,4.84,0,1,1-4.83,4.84A4.85,4.85,0,0,1,96.77,106.45Z"/><path d="M125.81,111.29h9.67A38.75,38.75,0,0,0,96.77,72.58v9.68A29.06,29.06,0,0,1,125.81,111.29Z"/><path d="M150,111.29h9.68a63,63,0,0,0-62.91-62.9v9.67A53.29,53.29,0,0,1,150,111.29Z"/><path d="M174.19,111.29h9.68a87.2,87.2,0,0,0-87.1-87.1v9.68A77.51,77.51,0,0,1,174.19,111.29Z"/><path d="M198.39,111.29h9.67A111.41,111.41,0,0,0,96.77,0V9.68A101.72,101.72,0,0,1,198.39,111.29Z"/></g></g></svg>