<svg xmlns="http://www.w3.org/2000/svg" viewBox="0 0 495.98 512"><title>Recurso 1</title><g id="Capa_2" data-name="Capa 2"><g id="Capa_1-2" data-name="Capa 1"><path d="M479.58,299.89h-7.66v-69a32.42,32.42,0,0,0-13.74-26.48V195a24.75,24.75,0,0,0-24.72-24.72h-5.72l21.88-32.12a23.66,23.66,0,0,0-6.21-32.83L294.87,4.11A23.63,23.63,0,0,0,262,10.33L133.84,198.45H98.17l8.6-87.13a2.58,2.58,0,0,1,1.63-2.16,55.5,55.5,0,0,0,27.06-22A2.55,2.55,0,0,1,137.88,86l56,5.53A7.3,7.3,0,0,0,195.27,77l-56-5.53a17.08,17.08,0,0,0-16.16,7.83,40.79,40.79,0,0,1-19.9,16.16,17.07,17.07,0,0,0-11,14.39L83.5,198.45H74.2L87.81,60.65a9,9,0,0,1,9.89-8.11L210.77,63.71a7.3,7.3,0,1,0,1.43-14.52L99.13,38A23.66,23.66,0,0,0,73.29,59.21l-11,111.07H43.64A24.74,24.74,0,0,0,18.92,195v6.41A32.46,32.46,0,0,0,0,230.88V479.57A32.47,32.47,0,0,0,32.43,512H439.49a32.47,32.47,0,0,0,32.43-32.43v-69h7.66a16.42,16.42,0,0,0,16.4-16.4V316.29A16.42,16.42,0,0,0,479.58,299.89Zm-46.12-115h0A10.13,10.13,0,0,1,443.59,195v3.72a32.7,32.7,0,0,0-4.1-.27H408.54l9.25-13.57ZM274.1,18.55a9,9,0,0,1,5.79-3.79,8.83,8.83,0,0,1,1.7-.17,9,9,0,0,1,5.07,1.58L435.19,117.39A9.05,9.05,0,0,1,437.57,130l-46.69,68.5h-11.2l22.89-33.59a17,17,0,0,0,.79-18.09,40.76,40.76,0,0,1-4.88-25.16,17.08,17.08,0,0,0-7.38-16.38l-77-52.47a17.06,17.06,0,0,0-17.94-.88A40.85,40.85,0,0,1,271,56.54a17.28,17.28,0,0,0-16.55,7.35L162.7,198.45H151.5Zm3.21,123.89a60.19,60.19,0,0,0-60,56h-37l86.1-126.34h0A2.61,2.61,0,0,1,268.59,71a1.84,1.84,0,0,1,.33,0,55.48,55.48,0,0,0,34.29-6.34,2.58,2.58,0,0,1,2.67.17l77,52.47a2.59,2.59,0,0,1,1.13,2.43,55.36,55.36,0,0,0,6.65,34.22,2.6,2.6,0,0,1-.15,2.71L362,198.45H337.29A60.21,60.21,0,0,0,277.31,142.44Zm45.35,56H232a45.54,45.54,0,0,1,90.7,0ZM33.51,195a10.14,10.14,0,0,1,10.12-10.13H60.88l-1.34,13.58h-26ZM14.59,230.88A17.86,17.86,0,0,1,32.43,213H439.49a17.86,17.86,0,0,1,17.84,17.84v20.24H14.59ZM457.33,479.57a17.86,17.86,0,0,1-17.84,17.84H32.43a17.86,17.86,0,0,1-17.84-17.84V459.33H53.93a7.3,7.3,0,1,0,0-14.59H14.59v-179H457.33v34.18H388a55.39,55.39,0,0,0-49.77,31.18c0,.07-.07.13-.1.19l-.21.48a55.13,55.13,0,0,0-2.76,7.05v0A55.37,55.37,0,0,0,388,410.56h69.37v34.18H100.65a7.3,7.3,0,1,0,0,14.59H457.33Zm24.06-85.41a1.81,1.81,0,0,1-1.81,1.81H388a40.76,40.76,0,0,1-35.81-21.34c-.32-.58-.62-1.16-.91-1.76a38,38,0,0,1-1.54-3.65,40.73,40.73,0,0,1,0-28c.46-1.24,1-2.46,1.54-3.65.29-.59.59-1.18.91-1.76A40.76,40.76,0,0,1,388,314.48h91.62a1.82,1.82,0,0,1,1.81,1.81v77.87Z"/></g></g></svg>