<?xml version="1.0" encoding="utf-8"?>
<!-- Generator: Adobe Illustrator 22.1.0, SVG Export Plug-In . SVG Version: 6.00 Build 0)  -->
<svg version="1.1" id="Layer_1" xmlns="http://www.w3.org/2000/svg" xmlns:xlink="http://www.w3.org/1999/xlink" x="0px" y="0px"
	 viewBox="0 0 341.7 512" style="enable-background:new 0 0 341.7 512;" xml:space="preserve">
<g transform="translate(1 1)">
	<g>
		<path d="M339.7,154.3C331.1,73.2,266.3,8.4,186.1-0.1C181-0.1,175.8-1,169.9-1c-6,0-11.1,0.9-16.2,0.9
			C73.4,9.2,8.6,74.1,0.1,154.3c-6,54.6,13.7,108.4,52.9,145.9c21.3,20.5,35,44.4,40.1,67.4v100.7c0,5.1,3.4,8.5,8.5,8.5h12.8
			l15.4,20.5c6.8,8.5,16.2,13.7,27.3,13.7h25.6c11.1,0,21.3-5.1,27.3-13.7l15.4-20.5h12.8c5.1,0,8.5-3.4,8.5-8.5V367.6
			c4.3-23,18.8-46.9,40.1-67.4C326,261.8,345.7,208.9,339.7,154.3z M135.7,212.3h-17.1c-9.4,0-17.1-7.7-17.1-17.1
			s7.7-17.1,17.1-17.1s17.1,7.7,17.1,17.1V212.3z M186.9,357.4h-34.1v-128h34.1V357.4z M229.6,374.5v17.1H204
			c-5.1,0-8.5,3.4-8.5,8.5s3.4,8.5,8.5,8.5h25.6v17.1h-51.2c-5.1,0-8.5,3.4-8.5,8.5s3.4,8.5,8.5,8.5h51.2v17.1h-8.5H118.7h-8.5
			v-17.1h25.6c5.1,0,8.5-3.4,8.5-8.5s-3.4-8.5-8.5-8.5h-25.6v-17.1h51.2c5.1,0,8.5-3.4,8.5-8.5s-3.4-8.5-8.5-8.5h-51.2v-17.1
			L229.6,374.5L229.6,374.5z M196.3,487.1c-3.4,4.3-8.5,6.8-13.7,6.8h-25.6c-5.1,0-10.2-2.6-13.7-6.8l-7.7-10.2H204L196.3,487.1z
			 M274.8,287.4c-21.3,21.3-36.7,45.2-43.5,70H204v-128h17.1c18.8,0,34.1-15.4,34.1-34.1s-15.4-34.1-34.1-34.1s-34.1,15.4-34.1,34.1
			v17.1h-34.1v-17.1c0-18.8-15.4-34.1-34.1-34.1s-34.1,15.4-34.1,34.1s15.4,34.1,34.1,34.1h17.1v128h-27.3
			c-6.8-24.7-22.2-48.6-43.5-70C29.1,253.3,12,205.5,17.1,156C25.7,83.5,83.7,25.5,156.2,16.9c4.3,0,8.5-0.9,13.7-0.9
			s9.4,0.9,13.7,0.9c72.5,8.5,131.4,66.6,139.1,139.1C327.7,205.5,310.7,253.3,274.8,287.4z M204,212.3v-17.1
			c0-9.4,7.7-17.1,17.1-17.1s17.1,7.7,17.1,17.1s-7.7,17.1-17.1,17.1H204z"/>
	</g>
</g>
</svg>
