<svg xmlns="http://www.w3.org/2000/svg" viewBox="0 0 60 60"><title>mobile</title><g id="Capa_2" data-name="Capa 2"><g id="Capa_1-2" data-name="Capa 1"><path d="M42.59,0H17.4A4.42,4.42,0,0,0,13,4.41V55.59A4.42,4.42,0,0,0,17.4,60H42.59A4.42,4.42,0,0,0,47,55.6V4.41A4.42,4.42,0,0,0,42.59,0ZM15,8H45V46H15Zm2.4-6H42.59A2.41,2.41,0,0,1,45,4.41V6H15V4.41A2.41,2.41,0,0,1,17.4,2ZM42.59,58H17.4A2.41,2.41,0,0,1,15,55.6V48H45v7.6A2.41,2.41,0,0,1,42.59,58Z"/><path d="M30,49a4,4,0,1,0,4,4A4,4,0,0,0,30,49Zm0,6a2,2,0,1,1,2-2A2,2,0,0,1,30,55Z"/><path d="M26,5h4a1,1,0,0,0,0-2H26a1,1,0,0,0,0,2Z"/><path d="M33,5h1a1,1,0,0,0,0-2H33a1,1,0,0,0,0,2Z"/><path d="M56.61,4.57A1,1,0,0,0,55.2,6a9.6,9.6,0,0,1,0,13.55A1,1,0,0,0,56.61,21,11.59,11.59,0,0,0,56.61,4.57Z"/><path d="M52.4,6.84A1,1,0,1,0,51,8.26a6.59,6.59,0,0,1,0,9.28,1,1,0,0,0,.7,1.7A1,1,0,0,0,52.4,19a8.58,8.58,0,0,0,0-12.11Z"/><path d="M4.8,6A1,1,0,0,0,3.39,4.57,11.59,11.59,0,0,0,3.39,21,1,1,0,1,0,4.8,19.53,9.58,9.58,0,0,1,4.8,6Z"/><path d="M9,6.57a1,1,0,0,0-1.41,0,8.55,8.55,0,0,0,0,12.1,1,1,0,0,0,1.41,0,1,1,0,0,0,0-1.41A6.57,6.57,0,0,1,9,8,1,1,0,0,0,9,6.57Z"/></g></g></svg>