<svg xmlns="http://www.w3.org/2000/svg" viewBox="0 0 512 512"><defs><style>.cls-1{fill:#1e120d;}</style></defs><title>open-link</title><g id="Capa_2" data-name="Capa 2"><g id="Capa_1-2" data-name="Capa 1"><path class="cls-1" d="M480.44,0h-176a31.56,31.56,0,0,0,0,63.12h99.87L237.67,229.7a31.56,31.56,0,0,0,44.63,44.63L448.88,107.74v99.87a31.56,31.56,0,0,0,63.12,0v-176A31.6,31.6,0,0,0,480.44,0Z"/><path class="cls-1" d="M362.71,457.9H54.1V149.29H286.21l54.09-54.1H27.05A27,27,0,0,0,0,122.24V485A27,27,0,0,0,27.05,512H389.76A27,27,0,0,0,416.81,485V171.7l-54.1,54.09Z"/></g></g></svg>